<?xml version="1.0" encoding="UTF-8" standalone="no"?>
<!-- Generator: Adobe Illustrator 16.0.0, SVG Export Plug-In . SVG Version: 6.00 Build 0)  -->

<svg
   xmlns:dc="http://purl.org/dc/elements/1.1/"
   xmlns:cc="http://creativecommons.org/ns#"
   xmlns:rdf="http://www.w3.org/1999/02/22-rdf-syntax-ns#"
   xmlns:svg="http://www.w3.org/2000/svg"
   xmlns="http://www.w3.org/2000/svg"
   xmlns:sodipodi="http://sodipodi.sourceforge.net/DTD/sodipodi-0.dtd"
   xmlns:inkscape="http://www.inkscape.org/namespaces/inkscape"
   version="1.1"
   id="Layer_1"
   x="0px"
   y="0px"
   width="424.099"
   height="421.46909"
   viewBox="0 0 424.099 421.46909"
   enable-background="new 0 0 512 512"
   xml:space="preserve"
   inkscape:version="0.48.3.1 r9886"
   sodipodi:docname="mediacrush_logo.svg"
   inkscape:export-filename="/home/sircmpwn/sources/MediaCrush/static/logo-bg.png"
   inkscape:export-xdpi="13.58"
   inkscape:export-ydpi="13.58"><metadata
   id="metadata11"><rdf:RDF><cc:Work
       rdf:about=""><dc:format>image/svg+xml</dc:format><dc:type
         rdf:resource="http://purl.org/dc/dcmitype/StillImage" /></cc:Work></rdf:RDF></metadata><defs
   id="defs9" /><sodipodi:namedview
   pagecolor="#ffffff"
   bordercolor="#666666"
   borderopacity="1"
   objecttolerance="10"
   gridtolerance="10"
   guidetolerance="10"
   inkscape:pageopacity="0"
   inkscape:pageshadow="2"
   inkscape:window-width="1366"
   inkscape:window-height="718"
   id="namedview7"
   showgrid="false"
   inkscape:zoom="0.921875"
   inkscape:cx="348.78032"
   inkscape:cy="219.59895"
   inkscape:window-x="0"
   inkscape:window-y="0"
   inkscape:window-maximized="1"
   inkscape:current-layer="Layer_1"
   fit-margin-top="15"
   fit-margin-left="0"
   fit-margin-right="0"
   fit-margin-bottom="15" />
<path
   d="m 57.061,406.1308 c 0,0 -57.061,-77.371 -57.061,-196.035 0,-118.667 57.066,-194.989 57.066,-194.989 0,0 94.32,-4.836 202.302,50.576 107.986,55.412 164.731,143.89 164.731,143.89 0,0 -63.792,96.22 -170.386,150.066 -106.594,53.844 -196.652,46.492 -196.652,46.492 z"
   id="path3"
   inkscape:connector-curvature="0"
   style="fill:#005580" />
<path
   d="m 69.467,289.1978 h 40.245 l 16.653,-106.249 0.236,-1.508 c 0.293,-0.599 0.455,-1.001 0.488,-1.205 2.366,-6.237 6.529,-9.357 12.493,-9.357 h 19.07 c 5.339,1.408 7.582,4.831 6.73,10.26 l -16.937,108.059 h 40.247 l 16.938,-108.059 c 0.725,-4.624 3.312,-7.745 7.772,-9.353 1.692,-0.605 3.041,-0.907 4.043,-0.907 h 17.717 c 7.403,0 10.479,4.022 9.22,12.07 l -16.656,106.249 h 40.247 l 18.926,-120.739 c 1.359,-8.672 0.666,-15.836 -2.069,-21.486 -5.515,-11.092 -15.223,-16.643 -29.119,-16.643 h -30.818 c -15.512,0 -26.729,4.742 -33.65,14.223 -3.953,-9.481 -13.686,-14.223 -29.196,-14.223 h -30.821 c -13.9,0 -25.342,5.55 -34.333,16.643 -4.248,5.248 -7.081,12.408 -8.504,21.486 l -18.922,120.739 z"
   id="path5"
   inkscape:connector-curvature="0"
   style="fill:#ffffff" />
</svg>