<?xml version="1.0" encoding="UTF-8" standalone="no"?>
<svg
   xmlns:dc="http://purl.org/dc/elements/1.1/"
   xmlns:cc="http://creativecommons.org/ns#"
   xmlns:rdf="http://www.w3.org/1999/02/22-rdf-syntax-ns#"
   xmlns:svg="http://www.w3.org/2000/svg"
   xmlns="http://www.w3.org/2000/svg"
   xmlns:sodipodi="http://sodipodi.sourceforge.net/DTD/sodipodi-0.dtd"
   xmlns:inkscape="http://www.inkscape.org/namespaces/inkscape"
   enable-background="new 0 0 56.693 56.693"
   height="150"
   id="Layer_1"
   version="1.1"
   viewBox="0 0 150 150"
   width="150"
   xml:space="preserve"
   inkscape:version="0.48.5 r10040"
   sodipodi:docname="icon-apple.svg"><metadata
     id="metadata3063"><rdf:RDF><cc:Work
         rdf:about=""><dc:format>image/svg+xml</dc:format><dc:type
           rdf:resource="http://purl.org/dc/dcmitype/StillImage" /></cc:Work></rdf:RDF></metadata><defs
     id="defs3061" /><sodipodi:namedview
     pagecolor="#ffffff"
     bordercolor="#666666"
     borderopacity="1"
     objecttolerance="10"
     gridtolerance="10"
     guidetolerance="10"
     inkscape:pageopacity="0"
     inkscape:pageshadow="2"
     inkscape:window-width="1916"
     inkscape:window-height="1036"
     id="namedview3059"
     showgrid="false"
     inkscape:zoom="3.6909318"
     inkscape:cx="-22.074051"
     inkscape:cy="95.294196"
     inkscape:window-x="1920"
     inkscape:window-y="18"
     inkscape:window-maximized="0"
     inkscape:current-layer="Layer_1" /><path
     style="fill:#fac000;fill-opacity:0"
     d="m 24.234575,134.52401 c -0.724473,-0.17959 -1.351749,-0.61233 -2.184833,-1.50725 -1.102608,-1.18446 -2.265347,-2.98496 -2.947657,-4.56444 -0.910412,-2.10753 -1.363013,-4.02263 -1.440298,-6.09439 -0.104284,-2.79553 0.677217,-5.05885 2.305095,-6.67582 1.180303,-1.1724 2.593525,-1.83014 4.20723,-1.95811 0.761347,-0.0604 1.532525,0.0932 2.766569,0.55091 1.424282,0.52829 1.895259,0.64974 2.333855,0.60182 0.197491,-0.0216 0.884141,-0.23493 1.525888,-0.47413 1.78899,-0.6668 2.138292,-0.74632 3.26279,-0.74278 0.730205,0.002 1.080667,0.0359 1.524005,0.14597 1.171064,0.29083 2.307137,0.90244 3.042777,1.63808 0.398438,0.39844 0.788354,0.87545 0.742816,0.90874 -0.01451,0.0106 -0.181163,0.13045 -0.370344,0.26632 -0.529023,0.37994 -1.324147,1.2516 -1.702441,1.8663 -0.654964,1.06429 -0.94876,2.39845 -0.82456,3.74444 0.07322,0.79351 0.213457,1.30382 0.56574,2.05867 0.507884,1.08826 1.474473,2.10128 2.592757,2.71731 0.251646,0.13862 0.466085,0.25797 0.47653,0.26521 0.05505,0.0382 -0.465161,1.30686 -0.868084,2.11711 -0.750861,1.50992 -1.914548,3.15734 -2.861774,4.05137 -0.830444,0.78381 -1.545572,1.10535 -2.466489,1.10898 -0.575755,0.002 -1.009537,-0.10121 -1.864281,-0.44473 -1.177839,-0.47336 -1.57893,-0.57856 -2.355467,-0.61777 -0.929791,-0.0469 -1.59396,0.0804 -2.661305,0.51028 -1.380682,0.55608 -2.121281,0.69579 -2.798519,0.52791 l 0,0 z"
     id="path4008"
     inkscape:connector-curvature="0" /><path
     style="fill:#fac40a;fill-opacity:0"
     d="m 24.309579,134.54591 c -0.729995,-0.14748 -1.710775,-0.83395 -2.451428,-1.71582 -2.499395,-2.97593 -3.95975,-6.5087 -4.186074,-10.12662 -0.181957,-2.90867 0.597581,-5.33361 2.244897,-6.98329 1.291064,-1.29291 2.85931,-1.97495 4.561939,-1.98402 0.8945,-0.005 1.275605,0.0836 2.765493,0.6411 1.32649,0.49637 1.681147,0.57386 2.173709,0.47494 0.201951,-0.0406 0.854633,-0.25681 1.450402,-0.48055 0.59577,-0.22374 1.33732,-0.47204 1.647889,-0.55178 2.218487,-0.56959 4.742112,0.16608 6.318663,1.84196 0.28125,0.29897 0.511364,0.58273 0.511364,0.63056 0,0.0478 -0.128661,0.17213 -0.285913,0.27619 -0.447865,0.29638 -1.301541,1.188 -1.643354,1.71639 -0.353744,0.54683 -0.644403,1.19597 -0.822878,1.83775 -0.185399,0.66669 -0.167417,2.34505 0.03302,3.08188 0.296919,1.09151 0.865713,2.04918 1.656344,2.78878 0.580312,0.54285 0.798612,0.70397 1.379143,1.01789 l 0.485697,0.26263 -0.29943,0.7648 c -0.582344,1.48742 -1.281287,2.70532 -2.439869,4.25146 -1.171505,1.56338 -2.243358,2.25856 -3.481446,2.25801 -0.59515,-2.7e-4 -1.106969,-0.13062 -2.120596,-0.54009 -1.086543,-0.43893 -1.757029,-0.57045 -2.654621,-0.52073 -0.799959,0.0443 -1.208063,0.14636 -2.263201,0.56594 -1.21299,0.48235 -1.941749,0.62151 -2.57975,0.49262 l 0,0 z"
     id="path4062"
     inkscape:connector-curvature="0" /><path
     style="fill:#fac40a;fill-opacity:1"
     d="M 58.998876,115.88071 C 56.580805,115.3922 53.332022,113.1183 50.878647,110.1972 42.59953,100.33958 37.76218,88.637424 37.012495,76.653292 36.409771,67.018437 38.991951,58.98595 44.4486,53.521502 c 4.276581,-4.282697 9.471315,-6.541952 15.111187,-6.571964 2.962983,-0.01655 4.225374,0.276922 9.160551,2.123578 4.39393,1.6442 5.568712,1.900882 7.200298,1.573215 0.668953,-0.13449 2.830927,-0.850637 4.804382,-1.591764 1.973457,-0.74116 4.429803,-1.563641 5.458547,-1.827743 7.348623,-1.886737 15.708005,0.550098 20.930255,6.101397 0.93163,0.990324 1.69387,1.93023 1.69387,2.088697 0,0.158335 -0.42619,0.570139 -0.94708,0.914866 -1.48352,0.981742 -4.31129,3.935154 -5.44353,5.685419 -1.17175,1.811346 -2.13455,3.961588 -2.725742,6.087484 -0.61412,2.208344 -0.55456,7.76782 0.10938,10.208534 0.983532,3.615573 2.867632,6.787833 5.486572,9.237721 1.92225,1.798159 2.64535,2.331872 4.56833,3.371683 l 1.60885,0.869971 -0.99185,2.533361 c -1.92898,4.927 -4.2442,8.961233 -8.08195,14.082713 -3.880552,5.1786 -7.431002,7.4814 -11.532105,7.47954 -1.971403,-8.9e-4 -3.666777,-0.43268 -7.024363,-1.78903 -3.599119,-1.45389 -5.820068,-1.88958 -8.793295,-1.72489 -2.649823,0.14675 -4.001646,0.48485 -7.496736,1.87468 -4.017966,1.59774 -6.431944,2.05868 -8.545288,1.63174 l 0,0 z"
     id="path4064"
     inkscape:connector-curvature="0" /><path
     style="fill:#fac40a;fill-opacity:1"
     d="m 74.167447,45.089036 c -0.458201,-1.194072 0.186491,-5.126279 1.280377,-7.809328 1.65949,-4.070435 4.889187,-7.842056 8.64402,-10.094455 1.926678,-1.155778 5.483558,-2.472609 7.271531,-2.692125 l 1.065731,-0.130845 -0.005,1.73453 c -0.02451,8.764506 -6.782009,17.2771 -15.074625,18.989968 -2.201299,0.4547 -3.008331,0.455263 -3.182179,0.0023 z"
     id="path4068"
     inkscape:connector-curvature="0" /></svg>