<?xml version="1.0" encoding="utf-8"?>
<!-- Generator: Adobe Illustrator 16.0.0, SVG Export Plug-In . SVG Version: 6.00 Build 0)  -->
<!DOCTYPE svg PUBLIC "-//W3C//DTD SVG 1.1//EN" "http://www.w3.org/Graphics/SVG/1.1/DTD/svg11.dtd">
<svg version="1.1" id="Layer_2" xmlns="http://www.w3.org/2000/svg" xmlns:xlink="http://www.w3.org/1999/xlink" x="0px" y="0px"
	 width="150px" height="150px" viewBox="-46.654 -46.654 150 150" enable-background="new -46.654 -46.654 150 150"
	 xml:space="preserve">
<g id="Linux_penguin_icon">
	<g>
		<g>
			<path fill="#FAC40A" d="M59.823,52.843c-0.338-0.162-0.277-0.378-0.188-0.655c0.34-1.075,0.588-2.178,0.699-3.294
				c0.297-2.983-0.088-5.896-1.004-8.745c-1.621-5.053-4.457-9.405-7.75-13.493c-1.639-2.034-3.332-4.026-4.689-6.269
				c-1.059-1.75-1.83-3.602-2.117-5.654c-0.217-1.549-0.016-3.096-0.123-4.47c0.043-2.496-0.008-4.816-0.273-7.131
				c-0.246-2.155-0.641-4.27-1.443-6.293c-1.438-3.63-3.902-6.197-7.746-7.208c-3.236-0.852-6.48-0.667-9.682,0.26
				c-3.034,0.878-5.357,2.661-6.845,5.478c-1.003,1.898-1.468,3.939-1.698,6.064c-0.24,2.213-0.19,4.424-0.078,6.634
				c0.131,2.581,0.397,5.143-0.025,7.736c-0.609,3.739-2.125,7.016-4.509,9.942c-3.48,4.266-6.532,8.813-8.662,13.924
				c-1.545,3.709-2.538,7.521-1.998,11.593c0.025,0.181-0.064,0.289-0.178,0.401c-0.793,0.782-1.412,1.706-2.062,2.602
				c-0.607,0.835-1.365,1.423-2.347,1.754c-0.772,0.261-1.539,0.551-2.276,0.896c-0.234,0.11-0.452,0.237-0.661,0.369
				c0.392,0.288,0.788,0.572,1.188,0.85c0.548-0.257,1.115-0.487,1.695-0.657c1.552-0.46,2.758-1.357,3.671-2.688
				c0.488-0.711,0.988-1.417,1.584-2.046c1.336-1.407,2.868-1.633,4.554-0.649c1.119,0.65,1.918,1.63,2.64,2.674
				c0.92,1.331,1.714,2.741,2.351,4.224c1.019,2.368,2.512,4.41,4.132,6.384c0.521,0.635,1.036,1.272,1.525,1.93
				c0.614,0.111,1.23,0.216,1.852,0.307c-0.621-0.89-1.295-1.748-1.979-2.647c0.309-0.062,0.578-0.106,0.843-0.17
				c1.792-0.433,2.524-1.729,1.986-3.502c-0.422-1.39-1.256-2.531-2.21-3.589c-1.646-1.827-3.599-3.28-5.677-4.569
				c-1.585-0.985-2.97-2.162-3.89-3.82c-1.17-2.109-1.355-4.377-0.978-6.694c0.664-4.069,2.594-7.621,4.696-11.093
				c0.028-0.047,0.092-0.072,0.151-0.117c0.101,0.316-0.106,0.527-0.215,0.756c-0.958,2.014-2.12,3.93-2.803,6.073
				c-0.905,2.838-1.272,5.687-0.249,8.573c0.309,0.868,0.72,1.689,1.399,2.489c0.124-1.086,0.225-2.062,0.349-3.034
				c0.409-3.201,1.379-6.235,2.731-9.158c1.799-3.889,3.654-7.755,4.985-11.842c0.717-2.201,1.263-4.438,1.459-6.812
				c0.929,0.5,1.759,1.037,2.451,1.75c2.539,2.611,5.786,2.415,8.268,0.962c1.352-0.793,2.68-1.615,4.168-2.163
				c1.047-0.382,1.904-1.106,2.662-2.042c1.762,6.062,3.973,11.841,6.854,17.356c1.746,3.341,3.127,6.818,3.818,10.541
				c0.062,0.339,0.186,0.544,0.594,0.566c0.412,0.025,0.834,0.02,1.244,0.159c0.422,0.143,0.441-0.259,0.523-0.51
				c0.734-2.235,0.697-4.49,0.096-6.735c-0.83-3.093-2.32-5.821-4.602-8.095c-0.207-0.211-0.477-0.401-0.461-0.807
				c0.27-0.021,0.389,0.188,0.527,0.327c3.201,3.229,5.354,7.021,6.076,11.542c0.227,1.421,0.219,2.872-0.107,4.293
				c-0.102,0.443-0.004,0.65,0.432,0.847c1.393,0.627,2.744,1.341,3.875,2.397c0.852,0.797,1.375,1.733,1.17,2.95
				c-0.039,0.236-0.039,0.507-0.41,0.464c-0.4-0.045-0.211-0.341-0.195-0.507c0.072-0.88-0.312-1.57-0.941-2.099
				c-1.957-1.644-4.213-2.684-6.758-2.969c-1.701-0.191-2.896,0.763-3.25,2.445c-0.104,0.495-0.295,0.813-0.793,1.07
				c-1.93,0.997-2.748,2.794-3.213,4.792c-0.42,1.814-0.609,3.663-0.641,5.524c-0.039,2.169-0.605,4.229-1.219,6.283
				c-0.012,0.042-0.031,0.076-0.049,0.11c0.51-0.111,1.018-0.228,1.52-0.354c0.303-1.027,0.596-2.058,0.811-3.107
				c0.312-1.549,0.238-3.128,0.393-4.687c0.166-1.673,0.34-3.34,0.941-4.927c0.475-1.253,1.154-2.026,2.068-2.376
				c0.105,1.017,0.348,1.989,0.832,2.892c1.096,2.052,2.85,2.772,5.068,2.078c1.504-0.472,2.824-1.269,3.959-2.354
				c0.277-0.264,0.545-0.4,0.93-0.391c0.643,0.014,1.299-0.069,1.922,0.086c1.143,0.289,1.943,0.988,2.383,2.106
				c0.189,0.479,0.332,0.969,0.457,1.464c0.391-0.289,0.781-0.582,1.166-0.879C62.096,54.927,61.378,53.592,59.823,52.843z
				 M30.411,2.966c1.748-1.654,4.25-1.381,5.748,0.553c1.629,2.104,1.76,5.58,0.312,7.811c-0.217,0.331-0.404,0.453-0.799,0.25
				c-0.488-0.249-1.203-0.28-1.479-0.656c-0.258-0.357,0.346-0.89,0.434-1.404c0.199-1.139,0.193-2.244-0.398-3.273
				c-0.771-1.346-2.156-1.389-3.025-0.106c-0.605,0.896-0.752,1.911-0.73,3.04c-0.535-0.19-1.008-0.364-1.484-0.526
				c-0.208-0.071-0.328-0.178-0.347-0.418C28.48,6.224,28.905,4.388,30.411,2.966z M19.651,4.156
				c1.097-1.763,3.002-1.879,4.269-0.244c0.993,1.281,1.295,2.78,1.277,4.366c-0.002,0.201-0.075,0.32-0.271,0.398
				C24.458,8.863,24,9.076,23.533,9.281c-0.052-0.92-0.141-1.819-0.675-2.597c-0.284-0.414-0.627-0.784-1.179-0.733
				c-0.543,0.05-0.863,0.447-1.042,0.917c-0.523,1.37-0.42,2.691,0.429,3.912c0.17,0.244,0.338,0.435-0.029,0.6
				c-0.298,0.135-0.522,0.749-0.958,0.171c-0.979-1.295-1.301-2.78-1.261-4.367C18.846,6.108,19.075,5.082,19.651,4.156z
				 M37.184,15.933c-0.596,1.097-1.531,1.866-2.658,2.305c-1.516,0.591-2.896,1.4-4.279,2.231c-1.529,0.918-3.187,1.122-4.914,0.674
				c-0.814-0.212-1.468-0.712-2.071-1.272c-0.733-0.679-1.5-1.303-2.362-1.818c-0.767-0.458-1.433-1.045-1.881-1.837
				c-0.608-1.074-0.414-2,0.576-2.735c1.208-0.897,2.408-1.799,3.528-2.813c1.101-0.997,2.421-1.529,3.944-1.478
				c1.169,0.004,2.291,0.305,3.277,0.906c1.504,0.917,3.115,1.554,4.76,2.138c0.477,0.17,0.941,0.38,1.361,0.676
				C37.544,13.667,37.819,14.767,37.184,15.933z M53.489,52.592c-0.938,1.02-2.082,1.717-3.467,1.915
				c-0.873,0.126-1.607-0.22-2.158-0.904c-0.752-0.935-1.023-2.037-1.037-3.213c0-0.156-0.008-0.311,0-0.465
				c0.082-1.6,0.984-2.325,2.555-2.032c1.461,0.274,2.781,0.878,3.928,1.812C54.321,50.531,54.378,51.63,53.489,52.592z"/>
		</g>
		<g>
			<path fill="#FAC40A" d="M35.325,14.302c-0.762,0.194-1.414,0.622-2.08,1.015c-1.332,0.79-2.648,1.604-4.1,2.172
				c-2.563,1.006-4.905,0.609-7.033-1.099c-0.655-0.525-1.26-1.115-1.901-1.662c-0.171-0.144-0.41-0.43-0.612-0.172
				c-0.179,0.228-0.191,0.564,0.113,0.823c0.642,0.544,1.242,1.139,1.9,1.663c1.399,1.115,2.962,1.838,4.792,1.852
				c1.523,0.006,2.897-0.525,4.251-1.147c1.707-0.783,3.156-2.051,4.967-2.646c0.295-0.097,0.223-0.408,0.182-0.639
				C35.749,14.16,35.512,14.256,35.325,14.302z"/>
		</g>
	</g>
</g>
</svg>
