<?xml version="1.0" encoding="utf-8"?>
<!-- Generator: Adobe Illustrator 16.0.0, SVG Export Plug-In . SVG Version: 6.00 Build 0)  -->
<!DOCTYPE svg PUBLIC "-//W3C//DTD SVG 1.1//EN" "http://www.w3.org/Graphics/SVG/1.1/DTD/svg11.dtd">
<svg version="1.1" id="Layer_3" xmlns="http://www.w3.org/2000/svg" xmlns:xlink="http://www.w3.org/1999/xlink" x="0px" y="0px"
	 width="150px" height="150px" viewBox="-46.654 -46.654 150 150" enable-background="new -46.654 -46.654 150 150"
	 xml:space="preserve">
<g id="iphone">
	<path fill="#FAC40A" d="M33.19-1.922c0,0.668-0.544,1.211-1.211,1.211h-7.266c-0.67,0-1.211-0.543-1.211-1.211l0,0
		c0-0.67,0.541-1.211,1.211-1.211h7.266C32.646-3.133,33.19-2.593,33.19-1.922L33.19-1.922z"/>
	<path fill="#FAC40A" d="M30.768,58.615c0,0.667-0.544,1.211-1.211,1.211h-2.422c-0.668,0-1.211-0.544-1.211-1.211l0,0
		c0-0.672,0.543-1.211,1.211-1.211h2.422C30.224,57.404,30.768,57.943,30.768,58.615L30.768,58.615z"/>
</g>
<path fill="#FAC40A" d="M47.721-10.404H8.971c-4.016,0-7.266,3.252-7.266,7.266v62.969c0,4.016,3.252,7.266,7.266,7.266h38.75
	c4.012,0,7.266-3.254,7.266-7.266V-3.138C54.987-7.154,51.733-10.404,47.721-10.404z M6.55-3.138c0-1.336,1.085-2.422,2.422-2.422
	h38.75c1.334,0,2.422,1.085,2.422,2.422v4.844H6.55V-3.138z M50.143,59.831c0,1.334-1.088,2.422-2.422,2.422H8.971
	c-1.336,0-2.422-1.083-2.422-2.422v-4.854h43.594V59.831z"/>
</svg>
