<?xml version="1.0" ?><!DOCTYPE svg  PUBLIC '-//W3C//DTD SVG 1.1//EN'  'http://www.w3.org/Graphics/SVG/1.1/DTD/svg11.dtd'><svg height="32px" style="enable-background:new 0 0 32 32;" version="1.1" viewBox="0 0 32 32" width="32px" x="0px" xml:space="preserve" xmlns="http://www.w3.org/2000/svg" xmlns:xlink="http://www.w3.org/1999/xlink" y="0px"><g id="Layer_1"/><g id="aperture_x5F_alt"><g><path d="M30.309,8.973l-9.973,9.973h11.367C31.883,17.984,32,17.008,32,16    C32,13.467,31.359,11.102,30.309,8.973z" style="fill:#4E4E50;"/><path d="M21.055,15.24l8.203-8.199c-1.953-2.879-4.844-5.021-8.203-6.146V15.24z" style="fill:#4E4E50;"/><path d="M16.748,21.055l8.205,8.207c2.883-1.949,5.027-4.844,6.152-8.207H16.748z" style="fill:#4E4E50;"/><path d="M18.943,11.744V0.297C17.986,0.119,17.008,0,16,0c-2.555,0-4.938,0.654-7.08,1.721L18.943,11.744z" style="fill:#4E4E50;"/><path d="M13.057,20.352v11.352C14.014,31.883,14.992,32,16,32c2.531,0,4.891-0.641,7.02-1.688    L13.057,20.352z" style="fill:#4E4E50;"/><path d="M10.943,16.773L2.75,24.965c1.949,2.875,4.838,5.016,8.193,6.141V16.773z" style="fill:#4E4E50;"/><path d="M0.297,13.057C0.119,14.014,0,14.992,0,16c0,2.539,0.645,4.906,1.695,7.035l9.979-9.979H0.297z" style="fill:#4E4E50;"/><path d="M6.996,2.781C4.141,4.73,2.014,7.604,0.895,10.943h14.264L6.996,2.781z" style="fill:#4E4E50;"/></g></g></svg>